<?xml version="1.0" standalone="no"?>
<!DOCTYPE svg PUBLIC "-//W3C//DTD SVG 20010904//EN"
 "http://www.w3.org/TR/2001/REC-SVG-20010904/DTD/svg10.dtd">
<svg version="1.0" xmlns="http://www.w3.org/2000/svg"
 width="80" height="80" viewBox="0 0 500.000000 500.000000"
 preserveAspectRatio="xMidYMid meet">
<metadata>
Created by potrace 1.16, written by Peter Selinger 2001-2019
</metadata>
<g transform="translate(0.000000,500.000000) scale(0.100000,-0.100000)"
fill="#000000" stroke="none">
<path d="M2445 4536 c-42 -15 -146 -67 -310 -158 -55 -30 -149 -81 -210 -113
-60 -32 -126 -69 -146 -81 -20 -13 -52 -29 -71 -37 -18 -8 -103 -52 -188 -97
-85 -46 -186 -100 -225 -120 -214 -112 -257 -146 -299 -241 l-26 -57 2 -854 3
-853 28 -57 c36 -73 105 -134 211 -187 45 -22 108 -55 141 -72 33 -18 161 -86
285 -152 124 -66 295 -157 380 -203 407 -218 491 -242 665 -187 62 20 280 133
720 373 580 316 590 323 635 395 50 80 50 83 50 967 0 804 -1 829 -20 881 -24
63 -90 134 -158 169 -89 47 -207 111 -272 148 -36 21 -168 92 -295 158 -126
66 -307 163 -401 215 -263 146 -317 171 -394 174 -37 1 -82 -3 -105 -11z m390
-287 c132 -73 276 -151 320 -174 44 -23 118 -63 165 -90 47 -26 146 -80 220
-120 305 -164 336 -185 371 -260 18 -38 19 -82 19 -828 0 -854 2 -816 -55
-891 -17 -22 -60 -52 -118 -82 -51 -26 -148 -79 -217 -117 -69 -39 -181 -100
-250 -137 -69 -37 -177 -97 -241 -133 -64 -37 -119 -67 -122 -67 -2 0 -76 -40
-163 -89 -86 -50 -174 -93 -195 -96 -55 -9 -94 5 -246 91 -76 42 -160 88 -188
102 -27 13 -95 50 -150 82 -55 32 -163 91 -240 132 -567 302 -564 301 -598
368 l-27 54 2 791 c3 767 4 791 23 830 24 47 69 81 207 156 56 31 191 103 298
162 108 58 225 121 260 139 36 19 126 68 200 109 74 42 188 104 253 138 180
93 172 94 472 -70z"/>
<path d="M2500 4222 c-19 -10 -80 -43 -135 -73 -233 -130 -542 -299 -548 -299
-3 0 -84 -43 -179 -96 -95 -53 -192 -105 -216 -115 -58 -25 -129 -75 -143
-100 -7 -15 -11 -243 -12 -764 0 -654 1 -746 15 -767 14 -20 101 -71 367 -214
120 -64 421 -228 591 -322 85 -47 188 -103 228 -123 l73 -36 122 64 c67 36
147 80 177 98 30 18 80 45 110 61 30 16 107 57 170 93 63 35 171 94 240 131
126 68 237 129 343 189 31 18 63 43 69 54 8 15 10 234 9 777 -2 712 -3 756
-20 780 -10 13 -89 63 -177 110 -191 103 -419 228 -768 420 -143 78 -265 144
-271 146 -5 2 -26 -4 -45 -14z m114 -469 c37 -54 87 -125 111 -158 30 -42 41
-64 35 -75 -5 -8 -35 -45 -68 -82 l-60 -67 -43 55 c-24 30 -47 54 -50 54 -4 0
-27 -25 -52 -55 l-45 -55 -64 75 c-34 42 -64 79 -66 84 -1 4 19 38 45 74 27
37 76 107 111 157 34 49 66 90 71 90 5 0 39 -44 75 -97z m-444 -188 c27 -40
50 -78 50 -84 0 -11 -78 -129 -109 -164 -15 -18 -16 -17 -38 9 -12 16 -24 26
-25 24 -2 -3 -16 -22 -32 -43 l-28 -38 -49 53 c-26 29 -48 58 -49 64 0 6 15
31 33 55 19 24 41 58 49 74 9 17 37 59 63 93 44 61 47 63 65 47 11 -10 42 -50
70 -90z m895 5 c37 -55 80 -117 96 -136 16 -20 29 -41 29 -46 0 -12 -92 -118
-102 -118 -4 0 -20 18 -35 41 l-27 41 -22 -26 -23 -26 -59 83 c-32 45 -62 87
-66 94 -7 12 120 193 135 193 4 0 37 -45 74 -100z m-1571 -91 c34 -27 35 -71
1 -105 -24 -24 -25 -29 -25 -164 l0 -140 -25 0 -25 0 0 142 c0 126 -2 144 -19
162 -31 34 -31 76 -1 106 26 26 60 25 94 -1z m878 -133 c29 -35 59 -67 67 -71
9 -3 23 5 37 22 12 15 31 39 43 53 l21 25 22 -30 c13 -16 33 -41 45 -55 l23
-25 64 70 c90 96 106 67 19 -35 -38 -44 -41 -65 -12 -81 20 -10 28 -4 83 55
34 36 65 66 68 66 7 0 163 -211 171 -231 3 -11 -11 -33 -44 -65 -46 -46 -49
-51 -49 -101 0 -29 -4 -53 -9 -53 -5 0 -28 24 -52 53 -81 96 -80 80 -11 150
34 35 62 70 62 78 0 9 -9 24 -20 34 -20 19 -22 18 -103 -63 l-83 -82 -40 42
c-22 24 -57 64 -78 91 -20 26 -43 47 -50 47 -8 0 -40 -30 -72 -67 -31 -38 -63
-74 -70 -82 -11 -12 -24 -5 -83 47 -65 58 -72 62 -119 62 l-50 0 -67 -90 c-37
-49 -72 -90 -79 -90 -7 0 -22 11 -34 25 -27 31 -39 31 -62 3 -15 -19 -20 -20
-34 -9 -23 19 -20 31 14 73 l31 37 -21 21 c-11 11 -23 20 -27 19 -5 0 -30 -27
-56 -60 -48 -58 -50 -59 -98 -59 -57 0 -58 -6 13 89 46 61 62 73 139 97 14 5
40 -13 152 -107 l37 -31 36 38 c19 22 72 87 117 147 45 59 87 107 94 107 6 0
36 -29 65 -64z m913 -116 c12 0 115 -136 115 -151 0 -5 -22 -9 -48 -9 -52 0
-70 14 -122 88 l-23 34 -25 -26 -26 -26 22 -29 c12 -17 22 -33 22 -37 0 -12
-35 24 -69 71 l-31 44 52 39 53 39 35 -18 c19 -11 39 -19 45 -19z m-1007 -163
l23 -24 -54 -59 c-30 -32 -66 -72 -81 -89 l-26 -30 -29 35 c-32 38 -32 42 20
97 19 21 48 55 63 75 31 41 42 41 84 -5z m417 -111 c75 -34 125 -74 141 -112
10 -23 36 -46 91 -80 43 -26 86 -55 96 -63 10 -9 42 -18 70 -21 l52 -5 3 -272
c1 -150 0 -273 -4 -273 -3 0 -21 12 -40 26 -32 25 -34 30 -34 84 0 39 5 62 15
70 8 7 15 18 15 25 0 7 -7 18 -15 25 -12 10 -15 38 -15 129 l0 116 -130 78
c-75 45 -130 85 -130 94 0 8 -5 13 -12 11 -20 -7 -19 -23 2 -33 11 -6 74 -43
140 -83 l120 -73 0 -113 c0 -92 -3 -115 -15 -120 -8 -3 -15 -17 -15 -31 0 -14
7 -28 15 -31 11 -5 15 -21 15 -60 0 -30 -3 -54 -7 -54 -4 0 -17 10 -30 22 -22
21 -23 27 -23 188 l0 166 -67 38 c-38 22 -118 72 -180 113 -131 86 -148 93
-214 93 -40 0 -55 -5 -74 -25 -54 -53 -24 -83 143 -143 73 -26 149 -61 169
-76 115 -93 89 -297 -47 -366 -104 -52 -260 -53 -366 0 -62 30 -168 132 -161
154 2 5 29 29 60 54 l57 45 39 -36 c53 -48 112 -77 170 -84 58 -7 108 16 117
53 10 39 -27 69 -120 100 -106 35 -204 85 -239 121 -87 92 -47 256 82 335 85
53 229 59 326 14z m-822 -15 c81 -32 166 -113 201 -192 80 -176 43 -357 -96
-486 -86 -78 -143 -93 -358 -93 l-150 0 0 -39 c0 -38 1 -39 87 -89 66 -38 92
-48 105 -41 57 30 126 -15 114 -76 -8 -37 -30 -55 -69 -55 -40 0 -63 15 -75
48 -8 23 -32 41 -116 86 l-106 57 0 455 0 456 203 -4 c181 -4 208 -6 260 -27z
m1777 -61 l0 -90 -322 2 -322 3 2 75 c0 41 1 81 1 88 1 9 72 12 321 12 l320 0
0 -90z m-430 -550 l0 -350 -41 -20 c-22 -12 -70 -39 -106 -61 l-65 -40 -84 7
c-69 6 -88 4 -109 -10 -25 -16 -25 -19 -25 -141 l0 -125 -40 -20 -39 -20 -11
20 c-9 17 -7 24 9 38 17 15 21 33 26 127 l6 110 -86 55 c-48 30 -102 63 -121
73 -29 15 -34 23 -34 52 l0 35 53 -35 c136 -89 207 -125 232 -119 14 3 27 10
30 14 3 4 44 5 93 2 83 -4 90 -3 137 24 28 16 64 37 80 46 l30 17 3 335 2 336
30 0 30 0 0 -350z m250 -9 l0 -359 -25 -16 c-13 -9 -27 -16 -30 -16 -3 0 -5
169 -5 375 l0 375 30 0 30 0 0 -359z m180 68 c0 -236 -3 -295 -15 -318 -12
-24 -126 -101 -149 -101 -3 0 -6 159 -6 354 l0 355 85 0 85 -1 0 -289z m-1477
-171 c29 -15 46 -38 47 -63 0 -14 23 -34 80 -68 l80 -48 0 -250 c0 -137 -3
-249 -8 -249 -4 0 -18 7 -30 16 -22 15 -22 19 -22 234 l0 218 -62 40 c-51 32
-70 38 -100 34 -30 -3 -42 1 -62 22 -34 33 -33 61 3 97 33 32 42 34 74 17z
m835 -84 c29 -20 31 -85 2 -114 -43 -43 -120 -7 -120 56 0 63 65 95 118 58z
m-987 -90 c133 -80 152 -101 129 -144 -22 -41 -91 -10 -74 34 4 10 -7 21 -38
37 -24 12 -55 30 -70 40 -14 11 -29 19 -32 19 -3 0 -6 -40 -6 -89 0 -88 1 -90
30 -111 19 -14 30 -30 30 -46 0 -30 -1 -30 -61 3 l-49 26 0 154 c0 84 3 153 6
153 4 0 64 -34 135 -76z m1297 -158 c-33 -21 -185 -108 -221 -126 -32 -17 -53
-37 -65 -60 -15 -31 -22 -35 -58 -38 -35 -3 -45 1 -63 24 -27 35 -27 59 4 89
25 26 82 34 101 15 7 -7 54 16 145 69 l134 79 13 -25 c8 -14 12 -26 10 -27z
m-729 -33 c34 -29 37 -74 7 -110 -34 -41 -37 -130 -6 -158 23 -21 27 -72 8
-98 -7 -9 -27 -19 -43 -23 -71 -14 -116 80 -60 124 21 17 25 28 25 75 0 46 -4
60 -25 81 -32 32 -32 70 0 101 28 29 64 32 94 8z m-390 -59 c28 -35 26 -69 -4
-99 -28 -29 -51 -31 -83 -9 -35 24 -45 59 -27 94 25 48 82 55 114 14z"/>
<path d="M1600 2571 l0 -221 84 0 c72 0 91 4 137 28 42 22 58 38 78 76 53 103
23 237 -68 301 -39 27 -51 30 -137 33 l-94 4 0 -221z"/>
</g>
</svg>
